<svg width="100" height="100" viewBox="0 0 100 100" fill="none" xmlns="http://www.w3.org/2000/svg">
<rect width="100" height="100" fill="white"/>
<rect x="22.0648" y="8" width="5.04731" height="10" fill="#FAFF00"/>
<rect x="61.4338" y="8" width="5.04731" height="10" fill="#FAFF00"/>
<rect x="74.5568" y="8" width="5.04731" height="10" fill="#FAFF00"/>
<rect x="35.1878" y="8" width="5.04731" height="10" fill="#FAFF00"/>
<path d="M48.3108 8H53.3581V18H48.3108V8Z" fill="#FAFF00"/>
<rect width="5" height="9.96605" transform="matrix(0.00250391 0.999997 -0.999997 0.00245719 92.8573 22)" fill="#FAFF00"/>
<rect width="5" height="9.96605" transform="matrix(0.00250391 0.999997 -0.999997 0.00245719 92.8585 61)" fill="#FAFF00"/>
<rect width="5" height="9.96605" transform="matrix(0.00250391 0.999997 -0.999997 0.00245719 92.8589 74)" fill="#FAFF00"/>
<rect width="5" height="9.96605" transform="matrix(0.00250391 0.999997 -0.999997 0.00245719 92.8898 35)" fill="#FAFF00"/>
<path d="M92.9224 48L92.9349 53L82.9689 53.0245L82.9564 48.0245L92.9224 48Z" fill="#FAFF00"/>
<rect width="5" height="10.0274" transform="matrix(0.00250391 0.999997 -0.999997 0.00245719 18.0945 22)" fill="#FAFF00"/>
<rect width="5" height="10.0274" transform="matrix(0.00250391 0.999997 -0.999997 0.00245719 18.1922 60.9998)" fill="#FAFF00"/>
<rect width="5" height="10.0274" transform="matrix(0.00250391 0.999997 -0.999997 0.00245719 18.2247 73.9998)" fill="#FAFF00"/>
<rect width="5" height="10.0274" transform="matrix(0.00250391 0.999997 -0.999997 0.00245719 18.1271 35)" fill="#FAFF00"/>
<path d="M18.0949 49L18.1074 54L8.08003 54.0246L8.06751 49.0246L18.0949 49Z" fill="#FAFF00"/>
<rect x="22.0648" y="83" width="5.04731" height="10" fill="#FAFF00"/>
<rect x="61.4338" y="83" width="5.04731" height="10" fill="#FAFF00"/>
<rect x="74.5568" y="83" width="5.04731" height="10" fill="#FAFF00"/>
<rect x="35.1878" y="83" width="5.04731" height="10" fill="#FAFF00"/>
<path d="M48.3108 83H53.3581V93H48.3108V83Z" fill="#FAFF00"/>
<rect x="18.027" y="18" width="65.615" height="65" fill="#6E65D7"/>
<path d="M37.7572 45.96C35.7172 41.08 33.7372 36.7 31.8172 32.82L30.6772 30.6V30H41.6572L43.0372 31.38L42.7972 31.74C41.8772 31.54 40.8172 31.34 39.6172 31.14C38.4172 30.94 37.5572 30.84 37.0372 30.84L52.4572 67.92L60.8572 47.88C61.3772 46.76 61.9172 45.44 62.4772 43.92C63.0772 42.36 63.6572 40.8 64.2172 39.24C65.8172 34.88 66.7172 32.08 66.9172 30.84C66.5572 30.84 65.9372 30.92 65.0572 31.08C64.2172 31.2 63.4172 31.32 62.6572 31.44L61.3972 31.74L61.1572 31.38L62.5372 30H70.3372V30.72C69.4972 32.08 68.4172 34.12 67.0972 36.84C65.8172 39.56 64.5572 42.38 63.3172 45.3C63.0772 45.74 62.8772 46.18 62.7172 46.62C62.5572 47.06 62.3772 47.48 62.1772 47.88L52.0972 72H48.7372L37.7572 45.96Z" fill="white"/>
</svg>
