<svg width="256" height="244" viewBox="0 0 256 244" fill="none" xmlns="http://www.w3.org/2000/svg">
<ellipse cx="131.2" cy="173.279" rx="62.9333" ry="70.7215" fill="black"/>
<ellipse cx="102.933" cy="165.096" rx="22.9333" ry="26.3014" fill="white"/>
<ellipse cx="102.933" cy="164.511" rx="16.5333" ry="18.7032" fill="black"/>
<ellipse cx="161.067" cy="165.096" rx="23.4667" ry="26.3014" fill="white"/>
<ellipse cx="160.533" cy="164.511" rx="16.5333" ry="18.7032" fill="black"/>
<mask id="path-6-inside-1_1_12" fill="white">
<path d="M127.607 125.815C125.386 128.496 121.755 129.633 116.921 129.161C112.087 128.689 106.146 126.616 99.4354 123.062C92.7253 119.508 85.378 114.541 77.8131 108.446C70.2481 102.351 62.6136 95.2461 55.3456 87.5379C48.0775 79.8297 41.3181 71.6688 35.4534 63.5211C29.5887 55.3734 24.7335 47.3986 21.165 40.0518C17.5965 32.7051 15.3846 26.1304 14.6555 20.703C13.9265 15.2757 14.6947 11.1021 16.9161 8.42043L72.2617 67.1175L127.607 125.815Z"/>
</mask>
<path d="M127.607 125.815C125.386 128.496 121.755 129.633 116.921 129.161C112.087 128.689 106.146 126.616 99.4354 123.062C92.7253 119.508 85.378 114.541 77.8131 108.446C70.2481 102.351 62.6136 95.2461 55.3456 87.5379C48.0775 79.8297 41.3181 71.6688 35.4534 63.5211C29.5887 55.3734 24.7335 47.3986 21.165 40.0518C17.5965 32.7051 15.3846 26.1304 14.6555 20.703C13.9265 15.2757 14.6947 11.1021 16.9161 8.42043L72.2617 67.1175L127.607 125.815Z" fill="white" stroke="black" stroke-width="2" mask="url(#path-6-inside-1_1_12)"/>
<mask id="path-7-inside-2_1_12" fill="white">
<path d="M128.393 125.815C130.614 128.496 134.245 129.633 139.079 129.161C143.913 128.689 149.854 126.616 156.565 123.062C163.275 119.508 170.622 114.541 178.187 108.446C185.752 102.351 193.386 95.2461 200.654 87.5379C207.923 79.8297 214.682 71.6688 220.547 63.5211C226.411 55.3734 231.267 47.3986 234.835 40.0518C238.404 32.7051 240.615 26.1304 241.344 20.703C242.073 15.2757 241.305 11.1021 239.084 8.42043L183.738 67.1175L128.393 125.815Z"/>
</mask>
<path d="M128.393 125.815C130.614 128.496 134.245 129.633 139.079 129.161C143.913 128.689 149.854 126.616 156.565 123.062C163.275 119.508 170.622 114.541 178.187 108.446C185.752 102.351 193.386 95.2461 200.654 87.5379C207.923 79.8297 214.682 71.6688 220.547 63.5211C226.411 55.3734 231.267 47.3986 234.835 40.0518C238.404 32.7051 240.615 26.1304 241.344 20.703C242.073 15.2757 241.305 11.1021 239.084 8.42043L183.738 67.1175L128.393 125.815Z" fill="white" stroke="black" stroke-width="2" mask="url(#path-7-inside-2_1_12)"/>
</svg>
