<svg width="389" height="324" viewBox="0 0 389 324" fill="none" xmlns="http://www.w3.org/2000/svg">
<path d="M168.976 294.665C164.485 295.935 161.605 294.325 160.335 289.835C159.255 286.018 159.459 281.595 160.947 276.567C164.02 265.999 166.688 256.999 168.952 249.57C171.215 242.14 172.961 236.311 174.19 232.084C175.938 189.397 172.462 152.673 163.762 121.913C158.11 101.93 150.971 86.9757 142.343 77.049C133.653 66.8978 124.592 63.1558 115.162 65.823C106.63 68.2361 98.4428 73.5829 90.6004 81.8632C82.758 90.1435 75.6798 100.269 69.366 112.239C63.0522 124.209 57.9222 136.936 53.9762 150.419C50.6787 161.051 48.5526 171.109 47.5979 180.594C46.8677 190.015 47.36 197.756 49.0746 203.819C51.9323 213.922 57.8516 217.704 66.8327 215.164C72.6703 213.513 78.5295 209.794 84.4102 204.009C90.2909 198.223 96.3519 190.932 102.593 182.134C104.008 180.279 105.165 179.225 106.063 178.971C106.512 178.844 106.8 179.005 106.927 179.454C107.181 180.352 106.889 181.889 106.05 184.067C104.083 188.26 100.753 193.203 96.0583 198.896C91.5882 204.525 86.6544 209.8 81.2567 214.721C76.0201 219.355 71.0443 222.338 66.3293 223.672C58.0218 226.022 50.5728 224.976 43.9821 220.536C37.6159 216.032 33.1945 209.401 30.7178 200.645C28.8762 194.134 28.4135 187.354 29.3297 180.305C30.5044 172.456 32.4649 164.384 35.2113 156.09C38.1822 147.733 41.8267 139.185 46.1448 130.446C52.0095 118.603 58.7849 107.836 66.4708 98.145C74.0933 88.2295 82.1602 79.8857 90.6718 73.1135C99.1833 66.3414 107.705 61.7487 116.237 59.3355C130.382 55.3347 142.327 58.9882 152.073 70.2961C162.043 81.5404 169.917 97.3785 175.696 117.81C178.49 127.689 180.706 138.096 182.344 149.03C184.142 159.675 185.189 169.806 185.484 179.422C186.004 188.975 185.773 197.163 184.794 203.987C191.697 187.243 199.242 170.196 207.429 152.846C215.553 135.272 224.043 118.564 232.899 102.722C241.916 86.5926 251.09 71.8735 260.42 58.5652C269.975 45.1933 279.459 34.145 288.873 25.4201C298.512 16.6317 307.822 10.9675 316.803 8.42728C321.967 6.96667 325.247 8.70615 326.645 13.6457C327.851 17.9117 326.984 24.7042 324.042 34.0232C323.042 36.4884 321.868 37.9116 320.521 38.2926C318.95 38.7371 317.942 38.1735 317.497 36.6019C317.18 35.4793 317.328 33.8611 317.943 31.7473C318.201 30.9468 318.477 29.7776 318.769 28.24C319.062 26.7023 319.049 25.3722 318.732 24.2495C318.224 22.4533 316.832 21.3919 314.558 21.0654C312.795 20.8363 310.679 21.0711 308.21 21.7696C297.208 24.8814 284.307 37.1386 269.507 58.5413C262.138 69.3549 254.767 81.0178 247.395 93.5301C240.183 105.754 233.483 118.076 227.296 130.495C221.271 142.627 215.904 154.087 211.196 164.875C206.648 175.376 203.211 184.229 200.885 191.434C199.592 195.437 198.282 199.809 196.956 204.549C195.565 209.064 194.158 213.948 192.734 219.201L188.125 235.054C187.823 239.989 187.392 245.324 186.832 251.06C186.433 256.507 185.824 262.499 185.005 269.035C184.089 276.084 182.087 281.864 178.998 286.375C175.909 290.886 172.568 293.649 168.976 294.665Z" fill="white"/>
</svg>
